Coordinates
version=1
nRows=26
nColumns=24
inDegrees=yes

Units are S.I. units (second, meters, Newtons, ...)
Angles are in degrees.

endheader
time	pelvis_tilt	pelvis_list	pelvis_rotation	pelvis_tx	pelvis_ty	pelvis_tz	hip_flexion_r	hip_adduction_r	hip_rotation_r	knee_angle_r	ankle_angle_r	subtalar_angle_r	mtp_angle_r	hip_flexion_l	hip_adduction_l	hip_rotation_l	knee_angle_l	ankle_angle_l	subtalar_angle_l	mtp_angle_l	lumbar_extension	lumbar_bending	lumbar_rotation
      1.14150000	     -3.66527286	      5.44295621	      0.09091295	      0.12471105	      0.99410158	      0.28733951	     26.87158674	     -5.80838142	     -1.49190057	    -71.14025392	     -1.42295462	    -13.94494536	     -0.64465071	     10.24653408	     10.29263300	      2.00105520	     -9.20632391	      1.75538231	    -10.37097344	      0.36584551	      0.03272413	     -3.04315342	      2.55664710
      1.14566667	     -3.62374346	      5.32537319	      0.10365531	      0.12979570	      0.99485198	      0.28724798	     27.33023816	     -5.63884533	     -1.41948002	    -70.75480545	     -0.71622828	    -14.17383954	     -0.72690823	      9.66965857	     10.17919228	      2.15708467	     -8.82533689	      1.79302296	    -10.42650807	      0.32364395	     -0.05371455	     -2.89068093	      2.48769361
      1.14983333	     -3.62798798	      5.16977855	      0.12455059	      0.13487875	      0.99552671	      0.28717240	     27.80918515	     -5.42802975	     -1.36497646	    -70.28627076	     -0.03062209	    -14.33006188	     -0.75584917	      9.16527072	     10.01929463	      2.27276635	     -8.49028021	      1.84907806	    -10.42274482	      0.30516028	     -0.07137519	     -2.68717963	      2.44875413
      1.15400000	     -3.57257558	      5.06722157	      0.13686725	      0.13993553	      0.99620883	      0.28709081	     28.22049028	     -5.27680057	     -1.28889269	    -69.78833787	      0.67514359	    -14.53821735	     -0.84352521	      8.57544332	      9.92203947	      2.46973676	     -8.10810414	      1.89839423	    -10.52053069	      0.25646457	     -0.19661763	     -2.56330007	      2.35190435
      1.15816667	     -3.53905236	      4.93408964	      0.15773415	      0.14500792	      0.99685317	      0.28701779	     28.62130624	     -5.09557116	     -1.23260912	    -69.20429009	      1.35657246	    -14.66770581	     -0.93459385	      8.02213953	      9.78838935	      2.64171081	     -7.75211136	      1.94531667	    -10.59927420	      0.20366204	     -0.27312724	     -2.39835893	      2.27867209
      1.16233333	     -3.54487766	      4.78664487	      0.18352471	      0.15004884	      0.99739178	      0.28696199	     29.04546892	     -4.89634298	     -1.17728780	    -68.55635345	      2.00911291	    -14.76048989	     -0.97758297	      7.54009115	      9.63430745	      2.77388207	     -7.44929048	      2.01037380	    -10.62299296	      0.17550735	     -0.30196055	     -2.22407585	      2.23361560
      1.16650000	     -3.49597603	      4.67159939	      0.20243658	      0.15511670	      0.99796507	      0.28688753	     29.39369954	     -4.74252560	     -1.12319615	    -67.86251004	      2.66090848	    -14.86309787	     -1.06913749	      6.96715521	      9.51887600	      2.96149627	     -7.08227576	      2.07324737	    -10.72291769	      0.11963342	     -0.40335809	     -2.07672915	      2.13795345
      1.17066667	     -3.50695947	      4.51466484	      0.23070164	      0.16015433	      0.99842444	      0.28683182	     29.77903418	     -4.54088572	     -1.08296306	    -67.08966671	      3.25904652	    -14.92006856	     -1.10850029	      6.49924647	      9.35235966	      3.08944138	     -6.79244254	      2.14758513	    -10.74819085	      0.09271878	     -0.43231140	     -1.87455335	      2.09586866
      1.17483333	     -3.48864902	      4.38199001	      0.25769414	      0.16519059	      0.99887784	      0.28679684	     30.11264950	     -4.36199508	     -1.03049240	    -66.26408206	      3.86629057	    -14.98201513	     -1.15207041	      5.99358437	      9.21064175	      3.23777492	     -6.48938390	      2.23191525	    -10.79676433	      0.06327315	     -0.48970135	     -1.72334466	      2.03223888
      1.17900000	     -3.47917170	      4.25896534	      0.28541967	      0.17021921	      0.99926116	      0.28674829	     30.43888313	     -4.19982452	     -0.97927057	    -65.38806804	      4.43226439	    -15.02656086	     -1.20382417	      5.49698842	      9.08014834	      3.39776426	     -6.18338326	      2.31449361	    -10.86393267	      0.02885913	     -0.54133955	     -1.57457244	      1.95778020
      1.18316667	     -3.42769849	      4.15616890	      0.30807076	      0.17526654	      0.99965896	      0.28669593	     30.70201485	     -4.06799429	     -0.93528376	    -64.46438517	      4.95873704	    -15.06651413	     -1.30853899	      4.93017292	      8.97144490	      3.59485500	     -5.82670387	      2.38008705	    -10.99573134	     -0.03729481	     -0.65143855	     -1.44704281	      1.84007234
      1.18733333	     -3.47054288	      4.02660897	      0.34084684	      0.18026566	      0.99987489	      0.28667589	     31.04535624	     -3.89703312	     -0.88800279	    -63.47723193	      5.44399957	    -15.09782391	     -1.35165909	      4.51771430	      8.82814024	      3.71798447	     -5.57090823	      2.47385629	    -11.02426688	     -0.06586759	     -0.64733034	     -1.28806794	      1.80080158
      1.19150000	     -3.44335472	      3.93397140	      0.36541799	      0.18529062	      1.00012069	      0.28664105	     31.29732534	     -3.77527181	     -0.84093630	    -62.45279924	      5.90898957	    -15.14517292	     -1.46441039	      3.99543337	      8.72677799	      3.89542156	     -5.24860248	      2.56323413	    -11.12942607	     -0.13564536	     -0.72830501	     -1.17653050	      1.68996030
      1.19566667	     -3.48881710	      3.81742105	      0.40097205	      0.19028185	      1.00024540	      0.28663136	     31.60077485	     -3.62138166	     -0.79409242	    -61.35784172	      6.32530389	    -15.17856104	     -1.51282495	      3.59290321	      8.59485542	      4.01251182	     -5.00515788	      2.66875257	    -11.15052111	     -0.16590237	     -0.71667211	     -1.03652885	      1.65059067
      1.19983333	     -3.49920926	      3.70917718	      0.43382444	      0.19529206	      1.00038593	      0.28662749	     31.84262884	     -3.48111500	     -0.75562416	    -60.21114937	      6.70359810	    -15.23119630	     -1.56359895	      3.14008474	      8.47009787	      4.13659364	     -4.73829196	      2.78223411	    -11.17419528	     -0.19652804	     -0.75363638	     -0.90880953	      1.58937240
      1.20400000	     -3.46110633	      3.62829949	      0.45699160	      0.20030798	      1.00052570	      0.28662571	     32.01692859	     -3.37267951	     -0.71244578	    -59.02506617	      7.00924875	    -15.32040182	     -1.67833805	      2.61324276	      8.37470955	      4.29114497	     -4.42687950	      2.88303332	    -11.24852666	     -0.26397082	     -0.84841651	     -0.81440983	      1.47107671
      1.20816667	     -3.46935568	      3.55127975	      0.48350313	      0.20530233	      1.00054767	      0.28663440	     32.22538484	     -3.26636742	     -0.66618844	    -57.79731889	      7.29229552	    -15.39314203	     -1.81501087	      2.15574900	      8.28186488	      4.42223930	     -4.15151668	      2.98600024	    -11.29971481	     -0.34278218	     -0.89234777	     -0.72262883	      1.39194071
      1.21233333	     -3.50436065	      3.46840450	      0.51382913	      0.21030138	      1.00050775	      0.28665400	     32.43730512	     -3.15497515	     -0.62786521	    -56.51448541	      7.51525329	    -15.48041978	     -1.95660541	      1.73487076	      8.18048230	      4.53524015	     -3.89296462	      3.10541377	    -11.32263450	     -0.42173634	     -0.90320627	     -0.62457954	      1.31980393
      1.21650000	     -3.55642957	      3.39981101	      0.54749399	      0.21528730	      1.00037778	      0.28667001	     32.65225454	     -3.06288899	     -0.59170969	    -55.19873780	      7.73395877	    -15.51818404	     -2.01528769	      1.35092284	      8.09493231	      4.62029534	     -3.67094718	      3.23148140	    -11.31609828	     -0.45312743	     -0.88256050	     -0.53663943	      1.28576883
      1.22066667	     -3.58391701	      3.32937876	      0.57343774	      0.22028669	      1.00024908	      0.28670336	     32.81747183	     -2.96937591	     -0.56379053	    -53.83356695	      7.86693916	    -15.59477113	     -2.08356741	      0.92615163	      8.00422295	      4.70467322	     -3.41871975	      3.36406352	    -11.31198382	     -0.48816536	     -0.90845286	     -0.46083743	      1.22830634
      1.22483333	     -3.60582598	      3.26623603	      0.59708454	      0.22530234	      1.00009948	      0.28673699	     32.95308759	     -2.88324109	     -0.53335662	    -52.42400700	      7.94888894	    -15.67951623	     -2.15461818	      0.49426457	      7.92159692	      4.78805014	     -3.16862528	      3.49255762	    -11.30363922	     -0.52380697	     -0.92728554	     -0.37895809	      1.16728027
      1.22900000	     -3.61155658	      3.22889242	      0.61047882	      0.23030576	      0.99991891	      0.28679862	     33.05968255	     -2.81905492	     -0.49112346	    -50.98819535	      7.95298890	    -15.81387854	     -2.28417997	      0.03537577	      7.86395345	      4.87378921	     -2.89545373	      3.61861959	    -11.29586272	     -0.59132416	     -0.98702444	     -0.34501371	      1.07721726
      1.23316667	     -3.67608397	      3.17132687	      0.63748088	      0.23532317	      0.99962435	      0.28684213	     33.20264259	     -2.74658318	     -0.48254354	    -49.50995023	      7.97415249	    -15.84396911	     -2.35627219	     -0.33772672	      7.78624204	      4.92809749	     -2.66979996	      3.75218604	    -11.28224996	     -0.62793299	     -0.95746879	     -0.27713894	      1.04113671
      1.23733333	     -3.67838425	      3.14587839	      0.64198205	      0.24033936	      0.99935658	      0.28691368	     33.26749757	     -2.69571283	     -0.44425741	    -48.00898220	      7.90052307	    -15.93172693	     -2.48145904	     -0.79545057	      7.74144463	      4.98505013	     -2.40977725	      3.88759018	    -11.24738916	     -0.69427712	     -1.01603686	     -0.24532342	      0.97203246
      1.24150000	     -3.74454419	      3.10669433	      0.66171316	      0.24538267	      0.99898085	      0.28696726	     33.37592348	     -2.64654762	     -0.44702578	    -46.47492260	      7.83812299	    -15.92205946	     -2.54942564	     -1.16787693	      7.68405126	      5.01377083	     -2.18594896	      4.02590094	    -11.22393973	     -0.73000775	     -0.97807387	     -0.19671739	      0.94281489
      1.24566667	     -3.78824894	      3.07220780	      0.66966299	      0.25043387	      0.99859917	      0.28704312	     33.43865426	     -2.59600744	     -0.44105590	    -44.90735144	      7.71246551	    -15.91361922	     -2.61581738	     -1.57207964	      7.63000135	      5.03781888	     -1.94768474	      4.17014264	    -11.18103930	     -0.76559032	     -0.97428888	     -0.15642632	      0.90388996
